<svg width="63" height="63" viewBox="0 0 63 63" fill="none" xmlns="http://www.w3.org/2000/svg">
<path d="M16.2919 47.7743C15.8055 47.6789 15.3888 47.3714 15.1582 46.9378C14.9276 46.5042 14.9077 45.9908 15.1042 45.541C16.0305 43.4202 16.0128 41.7624 15.9937 39.9718C15.9909 39.7142 15.9882 39.4538 15.9882 39.1889C15.9882 38.1492 16.0371 36.995 16.4217 35.8C16.8154 34.5764 17.5272 33.4067 18.7132 32.2428C18.8436 32.1148 18.9773 31.9918 19.1138 31.8738C20.9314 30.3028 23.2653 29.6179 25.5329 29.8193C27.4557 29.99 29.3308 30.7979 30.8034 32.2428C34.1493 35.526 34.1493 40.8534 30.8034 44.1366C27.9668 46.92 24.2566 47.7866 21.4212 48.0005C19.9861 48.1088 18.7212 48.0547 17.8134 47.9736C17.3581 47.933 16.7783 47.8698 16.2919 47.7743Z" fill="url(#paint0_linear_3483_22242)"/>
<path d="M16.9087 47.8743C17.1766 47.9122 17.4897 47.9498 17.7946 47.9721C17.5264 47.9479 17.2165 47.9161 16.9087 47.8743Z" fill="url(#paint1_linear_3483_22242)"/>
<path d="M19.1138 31.8738C20.9314 30.3028 23.2653 29.6179 25.5329 29.8193C26.6359 29.9172 27.723 30.2252 28.7277 30.7424C30.4197 28.8037 32.5084 26.5707 34.5472 24.503L38.7057 28.5838C36.5958 30.5867 34.3175 32.6377 32.3416 34.297C32.9148 35.3742 33.234 36.548 33.2992 37.7327C35.9355 35.5987 39.9009 31.9779 42.7508 29.215C45.3476 24.503 38.7057 17.2448 33.9188 20.5184C31.1032 23.3152 27.4074 27.2119 25.2338 29.7976C23.0609 29.6791 20.8517 30.3715 19.1138 31.8738Z" fill="url(#paint2_linear_3483_22242)"/>
<path fill-rule="evenodd" clip-rule="evenodd" d="M53.4004 31.0441C53.4004 44.8053 42.2447 55.961 28.4835 55.961C14.7223 55.961 3.56658 44.8053 3.56658 31.0441C3.56658 17.2829 14.7223 6.12721 28.4835 6.12721C42.2447 6.12721 53.4004 17.2829 53.4004 31.0441ZM28.9759 54.5822C40.6158 54.5822 50.0519 45.1462 50.0519 33.5063C50.0519 21.8663 40.6158 12.4303 28.9759 12.4303C17.336 12.4303 7.89995 21.8663 7.89995 33.5063C7.89995 45.1462 17.336 54.5822 28.9759 54.5822Z" fill="url(#paint3_linear_3483_22242)"/>
<path fill-rule="evenodd" clip-rule="evenodd" d="M23.3492 61.9191C6.54921 57.4176 -3.42066 40.1492 1.08089 23.3492C5.58244 6.54921 22.8508 -3.42066 39.6508 1.08089C56.4508 5.58244 66.4207 22.8508 61.9191 39.6508C57.4176 56.4508 40.1492 66.4207 23.3492 61.9191ZM2.60307 24.4014C-1.20456 38.6117 7.22846 53.2181 21.4387 57.0258C35.649 60.8334 50.2554 52.4004 54.0631 38.1901C57.8707 23.9798 49.4377 9.37339 35.2274 5.56575C21.0171 1.75812 6.41071 10.1911 2.60307 24.4014Z" fill="url(#paint4_linear_3483_22242)"/>
<defs>
<linearGradient id="paint0_linear_3483_22242" x1="39.943" y1="43.0298" x2="16.6643" y2="27.156" gradientUnits="userSpaceOnUse">
<stop stop-color="#F8DE7E" stop-opacity="0.4"/>
<stop offset="1" stop-color="#F8DE7E"/>
</linearGradient>
<linearGradient id="paint1_linear_3483_22242" x1="39.943" y1="43.0298" x2="16.6643" y2="27.156" gradientUnits="userSpaceOnUse">
<stop stop-color="#F8DE7E" stop-opacity="0.4"/>
<stop offset="1" stop-color="#F8DE7E"/>
</linearGradient>
<linearGradient id="paint2_linear_3483_22242" x1="39.943" y1="43.0298" x2="16.6643" y2="27.156" gradientUnits="userSpaceOnUse">
<stop stop-color="#F8DE7E" stop-opacity="0.4"/>
<stop offset="1" stop-color="#F8DE7E"/>
</linearGradient>
<linearGradient id="paint3_linear_3483_22242" x1="55.4686" y1="51.8246" x2="3.76355" y2="16.5667" gradientUnits="userSpaceOnUse">
<stop stop-color="#F8DE7E"/>
<stop offset="1" stop-color="#F8DE7E" stop-opacity="0.4"/>
</linearGradient>
<linearGradient id="paint4_linear_3483_22242" x1="55.4686" y1="51.8246" x2="3.76355" y2="16.5667" gradientUnits="userSpaceOnUse">
<stop stop-color="#F8DE7E" stop-opacity="0.4"/>
<stop offset="1" stop-color="#F8DE7E"/>
</linearGradient>
</defs>
</svg>
