<svg width="32" height="32" viewBox="0 0 32 32" fill="none" xmlns="http://www.w3.org/2000/svg">
<path d="M8.27539 24.2662C8.02834 24.2178 7.8167 24.0616 7.69956 23.8413C7.58242 23.6211 7.57233 23.3603 7.67211 23.1319C8.1426 22.0546 8.13363 21.2126 8.12392 20.303C8.12253 20.1722 8.12112 20.04 8.12112 19.9054C8.12112 19.3773 8.14597 18.791 8.34134 18.184C8.54132 17.5626 8.90284 16.9684 9.50526 16.3772C9.57152 16.3122 9.6394 16.2497 9.70875 16.1898C10.632 15.3918 11.8174 15.0439 12.9693 15.1462C13.9459 15.233 14.8983 15.6433 15.6463 16.3772C17.3458 18.0449 17.3458 20.7509 15.6463 22.4185C14.2055 23.8323 12.321 24.2725 10.8808 24.3811C10.1518 24.4361 9.50935 24.4087 9.04825 24.3675C8.81698 24.3468 8.52245 24.3148 8.27539 24.2662Z" fill="#373737"/>
<path d="M8.58867 24.3171C8.72478 24.3363 8.88378 24.3554 9.03866 24.3667C8.90243 24.3544 8.74504 24.3383 8.58867 24.3171Z" fill="#373737"/>
<path d="M9.70875 16.1898C10.632 15.3918 11.8174 15.0439 12.9693 15.1462C13.5295 15.196 14.0817 15.3524 14.592 15.6151C15.4514 14.6304 16.5124 13.4961 17.5479 12.4459L19.6602 14.5187C18.5885 15.536 17.4313 16.5778 16.4276 17.4206C16.7188 17.9678 16.8809 18.564 16.914 19.1657C18.2531 18.0818 20.2673 16.2427 21.7149 14.8393C23.0339 12.4459 19.6602 8.75916 17.2288 10.422C15.7986 11.8425 13.9214 13.8218 12.8173 15.1352C11.7136 15.075 10.5915 15.4267 9.70875 16.1898Z" fill="#373737"/>
<path fill-rule="evenodd" clip-rule="evenodd" d="M27.124 15.7684C27.124 22.7583 21.4576 28.4246 14.4678 28.4246C7.47797 28.4246 1.81159 22.7583 1.81159 15.7684C1.81159 8.77861 7.47797 3.11223 14.4678 3.11223C21.4576 3.11223 27.124 8.77861 27.124 15.7684ZM14.7179 27.7243C20.6303 27.7243 25.4232 22.9314 25.4232 17.0191C25.4232 11.1067 20.6303 6.3138 14.7179 6.3138C8.80558 6.3138 4.01267 11.1067 4.01267 17.0191C4.01267 22.9314 8.80558 27.7243 14.7179 27.7243Z" fill="#373737"/>
<path fill-rule="evenodd" clip-rule="evenodd" d="M11.8599 31.451C3.32658 29.1645 -1.73748 20.3933 0.549022 11.8599C2.83552 3.32658 11.6067 -1.73748 20.1401 0.549022C28.6734 2.83552 33.7375 11.6067 31.451 20.1401C29.1645 28.6734 20.3933 33.7375 11.8599 31.451ZM1.3222 12.3944C-0.61184 19.6123 3.6716 27.0314 10.8895 28.9655C18.1074 30.8995 25.5266 26.6161 27.4606 19.3981C29.3947 12.1802 25.1112 4.76109 17.8933 2.82705C10.6754 0.893013 3.25623 5.17645 1.3222 12.3944Z" fill="#373737"/>
</svg>
